Coordinates
version=1
nRows=18
nColumns=63
inDegrees=yes

Units are S.I. units (second, meters, Newtons, ...)
If the header above contains a line with 'inDegrees', this indicates whether rotational values are in degrees (yes) or radians (no).

endheader
time	pelvis_tilt	pelvis_list	pelvis_rotation	pelvis_tx	pelvis_ty	pelvis_tz	hip_flexion_r	hip_adduction_r	hip_rotation_r	knee_angle_r	knee_angle_r_beta	ankle_angle_r	subtalar_angle_r	mtp_angle_r	hip_flexion_l	hip_adduction_l	hip_rotation_l	knee_angle_l	knee_angle_l_beta	ankle_angle_l	subtalar_angle_l	mtp_angle_l	L5_S1_Flex_Ext	L5_S1_Lat_Bending	L5_S1_axial_rotation	L4_L5_Flex_Ext	L4_L5_Lat_Bending	L4_L5_axial_rotation	L3_L4_Flex_Ext	L3_L4_Lat_Bending	L3_L4_axial_rotation	L2_L3_Flex_Ext	L2_L3_Lat_Bending	L2_L3_axial_rotation	L1_L2_Flex_Ext	L1_L2_Lat_Bending	L1_L2_axial_rotation	L1_T12_Flex_Ext	L1_T12_Lat_Bending	L1_T12_axial_rotation	Abs_r3	Abs_r2	Abs_r1	Abs_t1	Abs_t2	neck_flexion	neck_bending	neck_rotation	arm_flex_r	arm_add_r	arm_rot_r	elbow_flex_r	pro_sup_r	wrist_flex_r	wrist_dev_r	arm_flex_l	arm_add_l	arm_rot_l	elbow_flex_l	pro_sup_l	wrist_flex_l	wrist_dev_l
0.000000	-0.482849	-5.064688	66.986558	0.212837	0.950958	0.519309	8.333979	5.963898	10.528405	10.286470	0.179533	23.335398	-15.929157	0.000000	3.749879	-6.309999	-16.071705	6.469610	0.112916	33.764722	12.838218	0.000000	0.150660	0.444531	2.555200	0.279791	0.591226	2.714900	0.247520	1.080833	2.714900	0.172190	1.080833	2.235800	0.139903	0.906488	2.076100	0.086087	0.688579	1.916400	1.076152	5.028626	14.211258	0.000000	0.000000	26.711167	-3.360309	-12.997766	16.279510	-5.513758	46.424625	34.186549	50.803282	-2.797369	14.564656	24.047485	-2.340910	66.673092	31.484920	78.318921	-7.794393	-4.087762
0.018519	-0.594978	-5.302602	67.520858	0.212154	0.949756	0.518312	8.799239	5.756286	8.930909	11.140763	0.194443	24.246016	-14.675338	0.000000	4.026137	-6.138562	-13.651222	6.145207	0.107254	33.610994	11.175822	0.000000	0.175576	0.457228	2.276956	0.326063	0.608114	2.419265	0.288454	1.111705	2.419265	0.200666	1.111705	1.992336	0.163040	0.932380	1.850026	0.100324	0.708247	1.707717	1.254124	5.172257	12.663744	0.000000	0.000000	27.058529	-2.949194	-10.848550	16.553657	-5.281672	47.831875	34.302668	49.925048	-3.339386	14.125536	23.052943	-2.977667	64.306888	32.450155	79.593566	-7.774738	-4.000392
0.037037	-0.704706	-5.515920	68.042180	0.211341	0.948768	0.517647	9.301924	5.542364	7.450112	11.990224	0.209269	25.061955	-13.578145	0.000000	4.337469	-5.986684	-11.795684	5.952426	0.103889	33.554107	10.039831	0.000000	0.195317	0.467504	2.035415	0.362724	0.621780	2.162628	0.320887	1.136688	2.162628	0.223228	1.136688	1.780988	0.181372	0.953333	1.653775	0.111604	0.724163	1.526561	1.395132	5.288494	11.320367	0.000000	0.000000	27.325243	-2.587623	-9.096367	16.809654	-5.114368	49.055292	34.359152	49.322397	-3.696854	13.778380	22.287307	-3.463528	62.363568	33.226612	80.655859	-7.773323	-3.917839
0.055556	-0.811241	-5.705367	68.546617	0.210423	0.947976	0.517277	9.832532	5.325294	6.086829	12.828592	0.223901	25.787682	-12.629241	0.000000	4.675562	-5.853300	-10.450917	5.876352	0.102562	33.582390	9.373523	0.000000	0.210303	0.475579	1.828279	0.390554	0.632520	1.942546	0.345507	1.156323	1.942546	0.240356	1.156323	1.599744	0.195288	0.969801	1.485477	0.120167	0.736672	1.371209	1.502175	5.379847	10.168339	0.000000	0.000000	27.518724	-2.273204	-7.707601	17.046102	-5.005856	50.098061	34.367328	48.962721	-3.889451	13.518916	21.727684	-3.813363	60.803462	33.833273	81.522046	-7.782523	-3.837843
0.074074	-0.913792	-5.871665	69.030266	0.209427	0.947362	0.517163	10.381561	5.108239	4.841874	13.649603	0.238231	26.427666	-11.820290	0.000000	5.032106	-5.737340	-9.562747	5.902075	0.103011	33.684170	9.120178	0.000000	0.220954	0.481677	1.653248	0.410334	0.640631	1.756576	0.363006	1.171150	1.756576	0.252529	1.171150	1.446592	0.205178	0.982236	1.343264	0.126253	0.746118	1.239936	1.578255	5.448830	9.194871	0.000000	0.000000	27.646385	-2.003548	-6.648632	17.261607	-4.950146	50.963367	34.338520	48.813412	-3.936855	13.342873	21.351180	-4.042043	59.586903	34.289121	82.208373	-7.794710	-3.758142
0.092593	-1.011567	-6.015538	69.489221	0.208378	0.946909	0.517266	10.939510	4.894362	3.716062	14.446994	0.252148	26.986375	-11.142956	0.000000	5.398789	-5.637739	-9.076998	6.014682	0.104976	33.847775	9.223072	0.000000	0.227691	0.486020	1.508024	0.422844	0.646406	1.602275	0.374073	1.181708	1.602275	0.260228	1.181708	1.319521	0.211434	0.991091	1.225269	0.130102	0.752845	1.131018	1.626372	5.497952	8.387176	0.000000	0.000000	27.715641	-1.776265	-5.885841	17.454771	-4.941246	51.654397	34.284055	48.841864	-3.858742	13.245980	21.134899	-4.164439	58.674220	34.613138	82.731085	-7.802256	-3.676474
0.111111	-1.103777	-6.137710	69.919575	0.207301	0.946600	0.517548	11.496879	4.686826	2.710208	15.214501	0.265543	27.468275	-10.588901	0.000000	5.767302	-5.553428	-8.939496	6.199262	0.108198	34.061533	9.625485	0.000000	0.230932	0.488829	1.390306	0.428864	0.650142	1.477200	0.379399	1.188538	1.477200	0.263932	1.188538	1.216518	0.214444	0.996819	1.129624	0.131955	0.757196	1.042730	1.649526	5.529727	7.732466	0.000000	0.000000	27.733907	-1.588964	-5.385610	17.624200	-4.973165	52.174335	34.215259	49.015469	-3.674790	13.223965	21.055949	-4.195421	58.025746	34.824306	83.106430	-7.797534	-3.590578
0.129630	-1.189629	-6.238904	70.317426	0.206223	0.946418	0.517968	12.044165	4.488793	1.825127	15.945862	0.278308	27.877836	-10.149789	0.000000	6.129332	-5.483340	-9.096066	6.440903	0.112415	34.313772	10.270696	0.000000	0.231099	0.490326	1.297796	0.429174	0.652134	1.378908	0.379673	1.192179	1.378908	0.264123	1.192179	1.135571	0.214599	0.999873	1.054459	0.132050	0.759515	0.973347	1.650718	5.546667	7.217951	0.000000	0.000000	27.708596	-1.439255	-5.114321	17.768497	-5.039913	52.526368	34.143458	49.301620	-3.404678	13.272557	21.091435	-4.149860	57.601811	34.941607	83.350652	-7.772917	-3.498193
0.148148	-1.268332	-6.319842	70.678866	0.205170	0.946346	0.518490	12.571868	4.303425	1.061632	16.634813	0.290332	28.219524	-9.817284	0.000000	6.476569	-5.426408	-9.492533	6.724692	0.117368	34.592820	11.101981	0.000000	0.228611	0.490734	1.228194	0.424554	0.652676	1.304956	0.375586	1.193171	1.304956	0.261280	1.193171	1.074670	0.212288	1.000705	0.997907	0.130629	0.760147	0.921145	1.632948	5.551283	6.830846	0.000000	0.000000	27.647123	-1.324748	-5.038353	17.886265	-5.135498	52.713680	34.079976	49.667708	-3.068082	13.387484	21.218462	-4.042627	57.362747	34.984025	83.479998	-7.720779	-3.397056
0.166667	-1.339095	-6.381250	70.999991	0.204167	0.946365	0.519073	13.070486	4.133885	0.420539	17.275091	0.301507	28.497809	-9.583050	0.000000	6.800702	-5.381564	-10.074724	7.035717	0.122796	34.887005	12.062621	0.000000	0.223889	0.490275	1.179201	0.415784	0.652066	1.252901	0.367827	1.192054	1.252901	0.255883	1.192054	1.031801	0.207903	0.999768	0.958101	0.127930	0.759436	0.884400	1.599217	5.546087	6.558360	0.000000	0.000000	27.556903	-1.243054	-5.124089	17.976109	-5.253930	52.739458	34.036141	50.081127	-2.684680	13.564475	21.414138	-3.888592	57.268885	34.970540	83.510713	-7.633490	-3.284908
0.185185	-1.401128	-6.423849	71.276895	0.203240	0.946459	0.519679	13.530519	3.983337	-0.097337	17.860433	0.311723	28.717157	-9.438749	0.000000	7.093420	-5.347742	-10.788463	7.359067	0.128440	35.184655	13.095892	0.000000	0.217352	0.489170	1.148517	0.403645	0.650596	1.220299	0.357088	1.189368	1.220299	0.248412	1.189368	1.004952	0.201833	0.997516	0.933170	0.124195	0.757725	0.861388	1.552526	5.533591	6.387707	0.000000	0.000000	27.445350	-1.191781	-5.337911	18.036632	-5.389218	52.606887	34.023277	50.509269	-2.274151	13.799258	21.655567	-3.702626	57.280555	34.920136	83.459044	-7.503425	-3.159485
0.203704	-1.452633	-6.437938	71.475270	0.202480	0.946572	0.520216	13.921800	3.859259	-0.467716	18.381730	0.320822	28.946682	-9.306013	0.000000	7.312609	-5.317344	-11.499065	7.638614	0.133319	35.470712	14.005846	0.000000	0.210444	0.486539	1.146727	0.390816	0.647096	1.218397	0.345739	1.182970	1.218397	0.240517	1.182970	1.003386	0.195419	0.992150	0.931715	0.120248	0.753648	0.860045	1.503184	5.503822	6.377749	0.000000	0.000000	27.337421	-1.241841	-5.746380	18.077515	-5.492212	52.131310	34.030205	50.589637	-1.933678	14.157994	21.961539	-3.478146	57.503176	34.793910	83.579533	-7.323808	-3.016784
0.222222	-1.515107	-6.439659	71.579455	0.201927	0.946702	0.520714	14.271298	3.755796	-0.662348	18.858667	0.329146	29.084214	-9.300323	0.000000	7.489392	-5.287497	-12.312814	7.915042	0.138144	35.738900	14.950326	0.000000	0.202436	0.481678	1.155002	0.375945	0.640632	1.227190	0.332583	1.171153	1.227190	0.231365	1.171153	1.010627	0.187982	0.982238	0.938439	0.115672	0.746120	0.866252	1.445983	5.448841	6.423775	0.000000	0.000000	27.227310	-1.271316	-6.131730	18.124335	-5.604364	51.694457	34.080162	50.568780	-1.632845	14.502620	22.234099	-3.326356	57.687075	34.744781	83.596253	-7.116307	-2.900117
0.240741	-1.570499	-6.440499	71.618361	0.201562	0.946843	0.521093	14.562310	3.690727	-0.685024	19.256505	0.336089	29.132918	-9.433100	0.000000	7.622395	-5.271601	-13.127963	8.166056	0.142525	35.968469	15.858858	0.000000	0.194922	0.477845	1.164938	0.361990	0.635533	1.237746	0.320237	1.161831	1.237746	0.222776	1.161831	1.019321	0.181005	0.974421	0.946512	0.111378	0.740181	0.873703	1.392309	5.405473	6.479035	0.000000	0.000000	27.127814	-1.271483	-6.405967	18.135910	-5.712502	51.153734	34.212668	50.559070	-1.351867	14.878320	22.415658	-3.227334	57.693594	34.779905	83.557485	-6.814040	-2.779301
0.259259	-1.604455	-6.435599	71.608527	0.201360	0.946998	0.521281	14.769364	3.662785	-0.610513	19.551056	0.341230	29.131138	-9.599349	0.000000	7.680528	-5.256718	-13.600699	8.331834	0.145418	36.082800	16.310936	0.000000	0.187533	0.476604	1.174843	0.348267	0.633883	1.248271	0.308097	1.158815	1.248271	0.214331	1.158815	1.027988	0.174143	0.971891	0.954560	0.107156	0.738260	0.881133	1.339526	5.391441	6.534127	0.000000	0.000000	27.044784	-1.261211	-6.573548	18.093538	-5.834627	50.503131	34.477338	50.466205	-1.107704	15.279018	22.463366	-3.151585	57.363060	34.900714	83.727145	-6.365739	-2.588061
0.277778	-1.608188	-6.421538	71.570230	0.201326	0.947161	0.521265	14.876370	3.683051	-0.416522	19.723925	0.344247	29.077593	-9.851306	0.000000	7.673864	-5.262718	-13.916557	8.439798	0.147302	36.140211	16.569203	0.000000	0.180311	0.478211	1.187268	0.334856	0.636021	1.261472	0.296234	1.162722	1.261472	0.206078	1.162722	1.038859	0.167437	0.975168	0.964655	0.103030	0.740749	0.890451	1.287946	5.409619	6.603226	0.000000	0.000000	26.985300	-1.248524	-6.659999	17.957323	-5.962498	49.598558	34.903218	50.480446	-0.864457	15.761102	22.426972	-3.096765	56.907672	35.075683	83.779060	-5.823870	-2.347905
0.296296	-1.579006	-6.381439	71.513945	0.201442	0.947346	0.521039	14.864852	3.734388	-0.204180	19.773672	0.345116	29.022465	-10.040163	0.000000	7.582270	-5.282419	-14.041769	8.472557	0.147874	36.136046	16.601135	0.000000	0.171531	0.482122	1.203370	0.318550	0.641222	1.278581	0.281808	1.172231	1.278581	0.196043	1.172231	1.052949	0.159284	0.983142	0.977738	0.098013	0.746806	0.902527	1.225229	5.453856	6.692783	0.000000	0.000000	26.940656	-1.250922	-6.707169	17.727058	-6.089555	48.443124	35.487418	50.596038	-0.658862	16.343119	22.319995	-3.052698	56.387533	35.291766	83.373180	-5.178840	-1.998657
0.314815	-1.507427	-6.320141	71.484883	0.201676	0.947555	0.520605	14.731982	3.832148	0.058444	19.687884	0.343618	28.939143	-10.281749	0.000000	7.435560	-5.339213	-14.139370	8.467356	0.147783	36.129522	16.670556	0.000000	0.162914	0.489125	1.217451	0.302548	0.650536	1.293541	0.267652	1.189258	1.293541	0.186195	1.189258	1.065269	0.151282	0.997423	0.989179	0.093089	0.757654	0.913088	1.163682	5.533078	6.771095	0.000000	0.000000	26.897985	-1.281406	-6.729971	17.415544	-6.228058	47.117198	36.205785	50.758951	-0.519998	16.939752	22.156800	-3.008411	55.846810	35.502160	82.831726	-4.510619	-1.609889
